<?xml version="1.0" encoding="utf-8"?>
<!-- Generator: Adobe Illustrator 25.4.5, SVG Export Plug-In . SVG Version: 6.00 Build 0)  -->
<svg version="1.1" id="Layer_1" xmlns="http://www.w3.org/2000/svg" xmlns:xlink="http://www.w3.org/1999/xlink" x="0px" y="0px"
	 viewBox="0 0 41.91 41.87" style="enable-background:new 0 0 41.91 41.87;" xml:space="preserve">
<style type="text/css">
	.st0{fill:#FFFFFF;}
</style>
<g id="DsLzEd_00000134234230527459729580000010080255171116712123_">
	<g>
		<g>
			<path class="st0" d="M41.91,20.52c-0.09,3.31-0.07,6.63-0.3,9.94c-0.39,5.82-4.59,10.1-10.42,10.39
				c-5.12,0.26-10.27,0.21-15.4,0.19c-2.16-0.01-4.36-0.08-6.46-0.53c-4.82-1.05-8.13-4.94-8.37-9.94
				c-0.25-5.15-0.22-10.31-0.2-15.47c0.01-2.18,0.08-4.42,0.55-6.53c1.07-4.81,5-8.12,9.97-8.34C16.46-0.01,21.65,0.04,26.84,0
				c2.24-0.02,4.49-0.02,6.68,0.6c4.51,1.29,7.24,4.29,7.9,8.87c0.43,2.99,0.3,6.06,0.41,9.1c0.02,0.65,0,1.3,0,1.95
				C41.85,20.52,41.88,20.52,41.91,20.52z M38.17,20.45c-0.08-3.05-0.1-6.17-0.27-9.28c-0.21-3.78-2.36-6.37-5.95-7.05
				C30.2,3.8,28.38,3.75,26.6,3.75c-4.91,0-9.82,0.01-14.73,0.18c-3.72,0.13-6.18,2.29-7,5.83c-0.19,0.84-0.3,1.73-0.31,2.59
				C4.52,17.62,4.5,22.88,4.53,28.14c0,1.06,0.12,2.15,0.36,3.18c0.81,3.54,3.28,5.72,7.01,5.8c6.18,0.14,12.36,0.16,18.54,0.01
				c4.5-0.11,7.24-2.95,7.48-7.43C38.07,26.65,38.09,23.58,38.17,20.45z"/>
			<path class="st0" d="M31.88,20.52c0.01,5.8-4.75,10.59-10.54,10.62c-5.87,0.03-10.7-4.78-10.68-10.64
				c0.02-5.84,4.81-10.6,10.66-10.58C27.12,9.94,31.88,14.71,31.88,20.52z M21.61,27.34c3.81-0.14,6.95-3.62,6.44-7.7
				c-0.42-3.35-3.56-6.39-7.69-5.87c-3.25,0.41-6.35,3.51-5.84,7.72C14.91,24.82,18.31,27.67,21.61,27.34z"/>
			<path class="st0" d="M34.75,9.55c0,1.42-1.1,2.5-2.52,2.49c-1.39-0.02-2.44-1.08-2.45-2.48c-0.01-1.41,1.1-2.51,2.52-2.49
				C33.67,7.07,34.75,8.17,34.75,9.55z"/>
		</g>
	</g>
</g>
</svg>
