<?xml version="1.0" encoding="utf-8"?>
<!-- Generator: Adobe Illustrator 25.4.5, SVG Export Plug-In . SVG Version: 6.00 Build 0)  -->
<svg version="1.1" id="Layer_1" xmlns="http://www.w3.org/2000/svg" xmlns:xlink="http://www.w3.org/1999/xlink" x="0px" y="0px"
	 viewBox="0 0 536 613" style="enable-background:new 0 0 536 613;" xml:space="preserve">
<style type="text/css">
	.st0{fill:#FFFFFF;}
</style>
<g id="DsLzEd_00000134234230527459729580000010080255171116712123_">
	<g>
		<g>
			<path class="st0" d="M546.2-335.12c-0.61,22.41-0.5,44.87-2,67.22c-2.64,39.34-31.08,68.29-70.45,70.26
				c-34.66,1.73-69.45,1.44-104.18,1.27c-14.59-0.07-29.52-0.52-43.68-3.61c-32.59-7.11-55.01-33.42-56.61-67.25
				c-1.65-34.84-1.49-69.78-1.33-104.68c0.07-14.76,0.51-29.87,3.69-44.18c7.21-32.52,33.85-54.92,67.45-56.39
				c35.02-1.53,70.13-1.17,105.2-1.41c15.16-0.11,30.36-0.16,45.16,4.07c30.49,8.71,48.98,29.04,53.43,59.98
				c2.91,20.23,2,41,2.74,61.54c0.16,4.38,0.02,8.77,0.02,13.16C545.83-335.13,546.01-335.12,546.2-335.12z M520.93-335.56
				c-0.57-20.65-0.7-41.74-1.84-62.77c-1.39-25.57-15.94-43.11-40.22-47.68c-11.83-2.22-24.14-2.56-36.23-2.55
				c-33.21,0.01-66.45,0.06-99.63,1.25c-25.15,0.91-41.82,15.52-47.32,39.44c-1.31,5.71-2.06,11.67-2.1,17.53
				c-0.27,35.58-0.39,71.17-0.22,106.75c0.03,7.19,0.82,14.54,2.42,21.54c5.5,23.95,22.19,38.68,47.4,39.24
				c41.78,0.92,83.61,1.09,125.39,0.1c30.45-0.73,48.96-19.94,50.58-50.23C520.27-293.65,520.37-314.4,520.93-335.56z"/>
			<path class="st0" d="M478.41-335.1c0.05,39.25-32.11,71.64-71.31,71.83c-39.72,0.19-72.37-32.34-72.21-71.96
				c0.15-39.51,32.55-71.68,72.1-71.57C446.18-406.7,478.36-374.4,478.41-335.1z M408.91-288.98c25.78-0.94,47.04-24.46,43.53-52.08
				c-2.87-22.68-24.11-43.21-52.04-39.7c-22.01,2.76-42.95,23.71-39.5,52.24C363.61-306.04,386.59-286.77,408.91-288.98z"/>
			<path class="st0" d="M497.78-409.32c-0.03,9.61-7.46,16.92-17.07,16.81c-9.4-0.11-16.51-7.3-16.58-16.78
				c-0.07-9.52,7.47-16.98,17.06-16.87C490.48-426.06,497.81-418.62,497.78-409.32z"/>
		</g>
	</g>
</g>
<g id="KQIFAq_00000111875967979516766730000013724095409231357365_">
	<g>
		<path class="st0" d="M395,241.93c0,1.87-0.01,3.07,0,4.26c0.3,57.56,0.44,115.11,1.03,172.67c0.12,11.56-3.15,22.35-5.44,33.34
			c-16.02,77.07-75.08,137.75-151.27,155.9c-88.27,21.04-179.5-22.18-219.17-103.82c-34.68-71.38-24.12-156.8,26.99-218.15
			c24.38-29.27,54.72-49.84,90.59-62.55c19.18-6.79,38.73-11.24,59.15-11.47c10.27-0.11,17.56,5.68,19.4,15.82
			c0.47,2.57,0.67,5.22,0.63,7.83c-0.4,24.63-0.8,49.26-1.4,73.89c-0.13,5.33-0.87,10.67-1.67,15.95
			c-2,13.22-9.86,20.32-23.16,21.19c-27.93,1.84-48.73,14.89-60.24,40.51c-17.97,40.01,8.5,86.28,52.32,92.54
			c34.29,4.9,65.87-14.4,75.92-46.75c1.62-5.21,2.46-10.9,2.45-16.36c-0.45-130.66-1.06-261.33-1.65-391.99
			c0-1.11-0.02-2.22,0.02-3.33c0.43-12.29,6.14-18.74,18.34-20.45c3.79-0.53,7.63-0.91,11.45-0.92c30.29-0.11,60.59-0.13,90.88-0.11
			c2.71,0,5.47,0.29,8.12,0.86c7.54,1.6,11.42,7.22,10.76,15.21c-1.66,20.04,2.52,39.15,11,57.03
			c7.66,16.16,20.42,28.47,34.74,38.99c21.15,15.55,44.73,24.27,71.19,24.82c12.12,0.25,19.63,7.85,19.61,19.99
			c-0.02,9.68-0.83,19.37-1,29.05c-0.31,18.27-0.38,36.55-0.59,54.82c-0.04,3.53,0.03,7.1-0.46,10.57
			c-1.28,9.03-7.42,14.83-16.47,15.95c-23.8,2.95-47.28,1.02-70.06-6.21c-16.33-5.19-32.22-11.76-48.31-17.71
			C397.67,242.95,396.66,242.56,395,241.93z M296.39,229c0.28,0,0.56,0,0.84,0c0,54.22-0.02,108.45,0.02,162.67
			c0.01,8.78,0.9,17.59,0.4,26.33c-4.05,71.43-76.07,117.43-142.74,91.34c-44.4-17.37-71.22-62.11-65.2-108.73
			c5.79-44.82,40.36-80.41,85.75-88.14c3.03-0.52,4.29-1.54,4.33-4.73c0.27-17.87,0.69-35.73,1.15-53.6
			c0.07-2.83-0.72-3.69-3.65-3.23c-13.84,2.17-27.25,5.81-40.09,11.41C76.3,288.92,37.13,346.83,36.09,413.51
			c-0.82,52.12,18.68,95.8,59.24,128.76c53.62,43.58,128.2,47.23,186.41,9.32c51.86-33.78,77.07-83.13,77.95-144.24
			c0.88-61.78-0.38-123.59-0.66-185.39c-0.02-4.76-0.35-9.29-2.28-13.85c-3.08-7.28-0.66-15.16,5.28-19.92
			c5.67-4.54,13.99-4.97,20.42-0.75c2.24,1.47,4.45,3.31,5.99,5.47c5.16,7.28,12.18,12.16,20.19,15.45
			c14.38,5.89,28.85,11.6,43.46,16.86c13.78,4.96,28.17,7.02,42.81,7.37c2.08,0.05,3.07-0.36,3.11-2.78
			c0.31-18.37,0.73-36.74,1.23-55.11c0.06-2.35-0.7-3.1-2.96-3.46c-41.33-6.57-75.42-26.15-102.26-58.05
			c-18.14-21.56-29.93-46.17-32.57-74.61c-0.25-2.67-1.69-2.7-3.66-2.7c-19.19,0.02-38.37-0.01-57.56-0.02c-4.82,0-4.82,0-4.8,4.72
			C295.75,103.39,296.07,166.19,296.39,229z"/>
	</g>
</g>
</svg>
